<svg width="63" height="63" viewBox="0 0 63 63" fill="none" xmlns="http://www.w3.org/2000/svg">
<path d="M58.9942 27.9714C58.1682 27.1039 56.8256 28.421 57.6763 29.2635C59.9192 31.5512 61.1543 34.572 61.1543 37.7666C61.1449 40.8193 59.9411 44.7182 57.6726 49.0416C54.1469 54.8268 51.7183 60.6562 45.517 61.1534C43.6935 61.1534 41.9521 60.4734 40.6138 59.2388C40.2605 58.9128 39.7157 58.9128 39.3623 59.2388C38.0241 60.4734 36.2827 61.1534 34.4619 61.1534C26.9741 61.4797 18.6336 43.764 18.8219 37.7695C18.7511 27.2417 31.6951 21.6409 39.3623 28.8342C39.3879 28.8577 39.4148 28.8798 39.4427 28.9004C39.784 29.1599 40.3027 29.1311 40.6137 28.8342C44.1912 25.459 49.8218 24.6228 54.2303 26.7944C55.3024 27.3287 56.1163 25.6332 55.0295 25.1307C50.5816 22.9426 44.9511 23.3912 40.9142 26.2358C41.0982 23.6844 41.5502 20.7831 43.6175 18.6033C44.4555 17.7155 43.2052 16.4617 42.3151 17.2956C39.7747 19.8257 39.1781 23.8391 39.0628 26.2365C34.281 22.7733 27.027 23.0046 22.5054 26.6341L22.5051 17.7349L30.0655 17.7347C32.0342 17.7753 33.7662 16.0385 33.7253 14.0705L33.7252 8.94685C33.73 6.86835 31.9816 5.20094 29.9114 5.28264V3.66421C29.9114 1.64378 28.2695 0 26.2516 0L7.4744 0.00036914C6.49654 0.00036914 5.57726 0.381691 4.88598 1.0742C4.19508 1.76621 3.81462 2.68623 3.81462 3.6647V5.28314C1.79173 5.16415 -0.0433923 6.91757 0.000781515 8.94735L0.000904561 14.071C-0.0398239 16.0391 1.69231 17.7758 3.66081 17.7351L11.2165 17.735L11.2175 45.2118L3.66032 45.2121C1.64235 45.2121 0.000658468 46.856 0.000658468 48.8765L0.000904561 54.0002C-0.0430231 56.0301 1.79185 57.7831 3.81486 57.6643V59.2828C3.77413 61.2511 5.50639 62.9876 7.47489 62.9469L26.2522 62.9459C27.4896 62.9459 28.6157 62.3205 29.2832 61.3359C30.9055 62.4087 32.6883 62.9938 34.4592 62.9991C36.4733 62.9991 38.4077 62.338 39.9882 61.1229C41.5686 62.338 43.5032 62.9991 45.5198 62.9991C48.4012 62.9904 51.317 61.4441 53.5194 58.7569C56.7886 54.7678 62.9772 45.2481 63 37.7693C63 34.0858 61.5773 30.6062 58.9942 27.9714ZM6.19225 2.37825C6.53481 2.03507 6.99021 1.84607 7.47452 1.84607L26.2518 1.84558C27.2522 1.84558 28.0659 2.66138 28.0659 3.66409V5.28264L5.66032 5.28314V3.6647C5.66032 3.17867 5.8492 2.7218 6.19225 2.37825ZM3.66081 15.8895C2.68443 15.9096 1.82643 15.047 1.84673 14.071L1.84661 8.94735C1.8263 7.97122 2.68431 7.10878 3.66069 7.12884L30.0657 7.12822C31.0659 7.12822 31.8797 7.94402 31.8799 8.94685L31.88 14.0705C31.9003 15.0467 31.0423 15.9091 30.0659 15.889L3.66081 15.8895ZM13.1852 17.735L20.5367 17.7349L20.537 28.457C18.3231 30.9359 16.9763 34.2 16.9763 37.7723C16.9835 40.1281 17.603 42.6869 18.5505 45.2116L13.1862 45.2118L13.1852 17.735ZM26.2522 61.1002L7.47489 61.1012C6.49851 61.1213 5.64039 60.2588 5.66069 59.2827V57.6642L10.0848 57.664C11.2826 57.6815 11.282 55.8007 10.0848 55.8183L4.73784 55.8185H3.66105C2.68456 55.8385 1.82655 54.9761 1.84685 53.9999L1.84661 48.8763C1.84661 47.8736 2.66031 47.0576 3.66069 47.0576L19.3017 47.057C20.7244 50.309 22.5866 53.4044 24.2576 55.8176L14.6515 55.8178C13.4537 55.8004 13.4543 57.6811 14.6515 57.6635L25.5954 57.6633C26.3079 58.5986 26.9808 59.44 27.8214 60.1958C27.5022 60.7448 26.9089 61.1002 26.2522 61.1002Z" fill="#013591"/>
<path d="M26.0935 44.1076C26.0935 44.6173 26.5067 45.0305 27.0163 45.0305H29.6772C31.5617 48.6949 37.4773 53.027 39.5764 54.0441C39.8489 54.1902 40.1764 54.1903 40.4488 54.0441C42.7955 52.8917 48.867 48.3687 50.6379 44.5012H53.0091C54.2289 44.4636 54.2287 42.6931 53.0091 42.6555H51.411C54.1091 34.7232 44.88 30.0536 40.0353 36.0698C34.943 29.8336 25.5433 35.0319 28.7984 43.1849H27.0163C26.5067 43.1848 26.0935 43.598 26.0935 44.1076ZM40.0127 52.1683C38.6414 51.3606 34.3696 48.6616 31.8671 45.0305H36.3962C36.755 45.0305 37.0813 44.8225 37.2328 44.4973L38.0061 42.8369L40.0909 48.1637C40.3573 48.9172 41.5029 48.9384 41.7968 48.1947L43.3996 44.5012H48.5061C46.0723 48.3985 41.449 51.3223 40.0127 52.1683ZM29.9888 39.7086C29.9888 37.2116 32.0301 35.1802 34.5393 35.1802C37.7881 35.1802 39.116 38.0146 39.1693 38.1315C39.4543 38.8325 40.5224 38.8528 40.839 38.1677C40.9003 38.0457 42.3747 35.1802 45.4861 35.1802C47.9953 35.1802 50.0368 37.2117 50.0368 39.7086C50.0368 40.7237 49.8194 41.7103 49.4471 42.6555H42.7941C42.4265 42.6555 42.0939 42.8737 41.9476 43.211L40.9943 45.4077L38.9392 40.1566C38.6762 39.4139 37.5539 39.3793 37.2432 40.1033L35.8081 43.1849H30.8048C30.2958 42.0807 29.9888 40.9148 29.9888 39.7086Z" fill="#013591"/>
</svg>
