<svg width="69" height="68" viewBox="0 0 69 68" fill="none" xmlns="http://www.w3.org/2000/svg">
<path d="M46.6975 28.8756H46.6706H46.5842C46.4716 28.8494 46.3685 28.7926 46.2861 28.7116L33.6014 16.03C31.9502 14.3791 31.0224 12.1399 31.0221 9.80497C31.0218 7.47003 31.9491 5.23061 33.5999 3.57935C35.2508 1.9281 37.49 1.00028 39.8249 1C42.1599 0.999721 44.3993 1.92701 46.0506 3.57786L46.6975 4.22476L47.3414 3.57786C48.9943 1.92983 51.2333 1.00438 53.5674 1.00438C55.9016 1.00438 58.1405 1.92983 59.7935 3.57786C61.4415 5.23082 62.367 7.46976 62.367 9.80392C62.367 12.1381 61.4415 14.377 59.7935 16.03L47.1208 28.6967C47.0656 28.7531 46.9997 28.7979 46.9271 28.8286C46.8544 28.8593 46.7763 28.8753 46.6975 28.8756ZM39.826 2.19761C38.3222 2.20001 36.8528 2.64803 35.6035 3.48508C34.3542 4.32213 33.3809 5.51066 32.8067 6.90053C32.2325 8.29041 32.0831 9.81928 32.3774 11.294C32.6716 12.7688 33.3964 14.1232 34.46 15.1863L46.7124 27.4387L58.9647 15.1863C60.3896 13.7574 61.1897 11.8218 61.1897 9.80392C61.1897 7.786 60.3896 5.85042 58.9647 4.42152C57.5358 2.99667 55.6003 2.19653 53.5823 2.19653C51.5644 2.19653 49.6289 2.99667 48.1999 4.42152L47.1327 5.48876C47.0187 5.59652 46.8678 5.65656 46.7109 5.65656C46.554 5.65656 46.4031 5.59652 46.2891 5.48876L45.2218 4.42152C44.5142 3.71245 43.6729 3.15079 42.7467 2.76906C41.8205 2.38732 40.8278 2.19309 39.826 2.19761Z" fill="#013590" stroke="#013590" stroke-width="0.5"/>
<path d="M21.7605 67.1262H1.59622C1.43809 67.1262 1.28644 67.0634 1.17463 66.9516C1.06282 66.8398 1 66.6881 1 66.53V26.6695C1 26.5114 1.06282 26.3598 1.17463 26.2479C1.28644 26.1361 1.43809 26.0733 1.59622 26.0733H3.56078C5.09903 26.0733 6.3511 24.9584 6.3511 23.5871C6.3511 22.2158 5.09903 21.1038 3.56078 21.1038H1.59622C1.43809 21.1038 1.28644 21.041 1.17463 20.9292C1.06282 20.8174 1 20.6657 1 20.5076V15.0462C1 14.888 1.06282 14.7364 1.17463 14.6246C1.28644 14.5128 1.43809 14.45 1.59622 14.45H21.7605C21.9186 14.45 22.0702 14.5128 22.1821 14.6246C22.2939 14.7364 22.3567 14.888 22.3567 15.0462V20.5076C22.3567 20.6657 22.2939 20.8174 22.1821 20.9292C22.0702 21.041 21.9186 21.1038 21.7605 21.1038H19.7989C18.2606 21.1038 17.0086 22.2187 17.0086 23.5871C17.0086 24.9554 18.2606 26.0733 19.7989 26.0733H21.7605C21.9186 26.0733 22.0702 26.1361 22.1821 26.2479C22.2939 26.3598 22.3567 26.5114 22.3567 26.6695V51.7675C22.3567 51.9257 22.2939 52.0773 22.1821 52.1891C22.0702 52.3009 21.9186 52.3638 21.7605 52.3638C21.6023 52.3638 21.4507 52.3009 21.3389 52.1891C21.2271 52.0773 21.1642 51.9257 21.1642 51.7675V27.2658H19.7989C17.6018 27.2658 15.8161 25.6142 15.8161 23.5871C15.8161 21.5599 17.6048 19.9114 19.7989 19.9114H21.1642V15.6424H2.19244V19.9114H3.56078C5.75786 19.9114 7.54354 21.5599 7.54354 23.5871C7.54354 25.6142 5.75487 27.2658 3.56078 27.2658H2.19244V65.9338H21.7605C21.9186 65.9338 22.0702 65.9966 22.1821 66.1084C22.2939 66.2202 22.3567 66.3719 22.3567 66.53C22.3567 66.6881 22.2939 66.8398 22.1821 66.9516C22.0702 67.0634 21.9186 67.1262 21.7605 67.1262Z" fill="#013590" stroke="#013590" stroke-width="0.5"/>
<path d="M19.468 21.1038H3.8917C3.73357 21.1038 3.58192 21.041 3.47011 20.9292C3.35829 20.8174 3.29548 20.6657 3.29548 20.5076C3.29548 20.3495 3.35829 20.1978 3.47011 20.086C3.58192 19.9742 3.73357 19.9114 3.8917 19.9114H19.468C19.6261 19.9114 19.7778 19.9742 19.8896 20.086C20.0014 20.1978 20.0642 20.3495 20.0642 20.5076C20.0642 20.6657 20.0014 20.8174 19.8896 20.9292C19.7778 21.041 19.6261 21.1038 19.468 21.1038Z" fill="#013590" stroke="#013590" stroke-width="0.5"/>
<path d="M14.4508 13.2157H8.90592C8.7478 13.2157 8.59614 13.1529 8.48433 13.0411C8.37252 12.9293 8.3097 12.7777 8.3097 12.6195V8.82755C8.3097 8.66942 8.37252 8.51777 8.48433 8.40595C8.59614 8.29414 8.7478 8.23132 8.90592 8.23132H14.4508C14.6089 8.23132 14.7606 8.29414 14.8724 8.40595C14.9842 8.51777 15.047 8.66942 15.047 8.82755V12.6195C15.047 12.7777 14.9842 12.9293 14.8724 13.0411C14.7606 13.1529 14.6089 13.2157 14.4508 13.2157ZM9.50215 12.0233H13.8546V9.42377H9.50215V12.0233Z" fill="#013590" stroke="#013590" stroke-width="0.5"/>
<path d="M10.1938 15.6424C10.0356 15.6424 9.88399 15.5796 9.77218 15.4678C9.66036 15.356 9.59755 15.2043 9.59755 15.0462V13.0071C9.59755 12.849 9.66036 12.6973 9.77218 12.5855C9.88399 12.4737 10.0356 12.4109 10.1938 12.4109C10.3519 12.4109 10.5035 12.4737 10.6154 12.5855C10.7272 12.6973 10.79 12.849 10.79 13.0071V15.0462C10.79 15.2043 10.7272 15.356 10.6154 15.4678C10.5035 15.5796 10.3519 15.6424 10.1938 15.6424Z" fill="#013590" stroke="#013590" stroke-width="0.5"/>
<path d="M13.163 15.6424C13.0048 15.6424 12.8532 15.5796 12.7414 15.4678C12.6296 15.356 12.5667 15.2043 12.5667 15.0462V13.0071C12.5667 12.849 12.6296 12.6973 12.7414 12.5855C12.8532 12.4737 13.0048 12.4109 13.163 12.4109C13.3211 12.4109 13.4727 12.4737 13.5846 12.5855C13.6964 12.6973 13.7592 12.849 13.7592 13.0071V15.0462C13.7592 15.2043 13.6964 15.356 13.5846 15.4678C13.4727 15.5796 13.3211 15.6424 13.163 15.6424Z" fill="#013590" stroke="#013590" stroke-width="0.5"/>
<path d="M50.7369 67.1263H44.6823C44.5241 67.1263 44.3725 67.0635 44.2607 66.9517C44.1489 66.8398 44.0861 66.6882 44.0861 66.5301C44.0861 66.3719 44.1489 66.2203 44.2607 66.1085C44.3725 65.9967 44.5241 65.9338 44.6823 65.9338H50.7369C50.895 65.9338 51.0467 65.9967 51.1585 66.1085C51.2703 66.2203 51.3331 66.3719 51.3331 66.5301C51.3331 66.6882 51.2703 66.8398 51.1585 66.9517C51.0467 67.0635 50.895 67.1263 50.7369 67.1263Z" fill="#013590" stroke="#013590" stroke-width="0.5"/>
<path d="M67.4043 67.1263H50.7369C50.5788 67.1263 50.4271 67.0634 50.3153 66.9516C50.2035 66.8398 50.1407 66.6882 50.1407 66.53C50.1407 66.3719 50.2035 66.2203 50.3153 66.1084C50.4271 65.9966 50.5788 65.9338 50.7369 65.9338H66.8081V64.5536C66.8081 63.9432 66.5656 63.3578 66.134 62.9262C65.7024 62.4946 65.117 62.2521 64.5066 62.2521H61.7432C61.585 62.2521 61.4334 62.1893 61.3216 62.0775C61.2097 61.9657 61.1469 61.814 61.1469 61.6559C61.1469 61.4978 61.2097 61.3461 61.3216 61.2343C61.4334 61.1225 61.585 61.0597 61.7432 61.0597H64.5066C65.4328 61.0613 66.3206 61.4299 66.9754 62.0848C67.6303 62.7396 67.9989 63.6274 68.0005 64.5536V66.53C68.0005 66.6882 67.9377 66.8398 67.8259 66.9516C67.7141 67.0634 67.5624 67.1263 67.4043 67.1263Z" fill="#013590" stroke="#013590" stroke-width="0.5"/>
<path d="M48.5338 62.2521H27.8718C27.7136 62.2521 27.562 62.1893 27.4502 62.0775C27.3383 61.9657 27.2755 61.814 27.2755 61.6559C27.2755 61.4978 27.3383 61.3461 27.4502 61.2343C27.562 61.1225 27.7136 61.0597 27.8718 61.0597H48.5338C48.692 61.0597 48.8436 61.1225 48.9554 61.2343C49.0673 61.3461 49.1301 61.4978 49.1301 61.6559C49.1301 61.814 49.0673 61.9657 48.9554 62.0775C48.8436 62.1893 48.692 62.2521 48.5338 62.2521Z" fill="#013590" stroke="#013590" stroke-width="0.5"/>
<path d="M44.6822 67.1263H16.6061C15.7214 67.1228 14.8523 66.8937 14.0808 66.4608C13.3093 66.0278 12.6609 65.4052 12.1971 64.6519C11.9774 64.2944 11.8572 63.8847 11.8488 63.4652C11.8403 63.0456 11.944 62.6314 12.1491 62.2653C12.3541 61.8992 12.6532 61.5945 13.0154 61.3826C13.3775 61.1706 13.7897 61.0592 14.2093 61.0597H19.6826C19.8408 61.0597 19.9924 61.1225 20.1042 61.2343C20.216 61.3461 20.2789 61.4978 20.2789 61.6559C20.2789 61.814 20.216 61.9657 20.1042 62.0775C19.9924 62.1893 19.8408 62.2521 19.6826 62.2521H14.2093C13.9998 62.2502 13.7937 62.3048 13.6126 62.4102C13.4315 62.5155 13.2822 62.6677 13.1803 62.8508C13.0784 63.0338 13.0277 63.241 13.0335 63.4504C13.0394 63.6598 13.1016 63.8638 13.2136 64.0408C13.5705 64.6206 14.0693 65.0998 14.6629 65.4331C15.2565 65.7664 15.9253 65.9428 16.6061 65.9457H44.6822C44.8404 65.9457 44.992 66.0086 45.1038 66.1204C45.2157 66.2322 45.2785 66.3838 45.2785 66.542C45.2785 66.7001 45.2157 66.8517 45.1038 66.9636C44.992 67.0754 44.8404 67.1382 44.6822 67.1382V67.1263Z" fill="#013590" stroke="#013590" stroke-width="0.5"/>
<path d="M65.2937 62.2522H63.8031C63.645 62.2522 63.4934 62.1894 63.3815 62.0776C63.2697 61.9658 63.2069 61.8141 63.2069 61.656C63.2069 61.4979 63.2697 61.3462 63.3815 61.2344C63.4934 61.1226 63.645 61.0598 63.8031 61.0598H65.2937C65.6962 61.059 66.082 60.899 66.3668 60.6147C66.6517 60.3303 66.8125 59.9449 66.8141 59.5424L66.8528 45.8591C66.8536 45.5477 66.7663 45.2424 66.601 44.9785C66.4357 44.7146 66.1991 44.5028 65.9186 44.3675C65.6381 44.2322 65.3251 44.179 65.0157 44.214C64.7062 44.249 64.413 44.3708 64.1698 44.5653C62.9881 45.5142 61.5201 46.0354 60.0046 46.0441C58.489 46.0528 57.0151 45.5484 55.8227 44.613L52.0993 41.7034C51.3987 41.1542 50.5088 40.9054 49.625 41.0118C49.4668 41.0304 49.3078 40.9854 49.1828 40.8867C49.0579 40.788 48.9773 40.6438 48.9587 40.4856C48.9401 40.3275 48.9851 40.1685 49.0838 40.0435C49.1824 39.9186 49.3267 39.8379 49.4848 39.8193C50.0775 39.7469 50.6786 39.7923 51.2536 39.953C51.8287 40.1136 52.3663 40.3863 52.8356 40.7554L56.559 43.665C57.5409 44.437 58.7555 44.8535 60.0045 44.8465C61.2535 44.8394 62.4633 44.4093 63.4365 43.6262C63.8552 43.2912 64.3601 43.0814 64.8929 43.021C65.4258 42.9606 65.9648 43.0521 66.4479 43.2849C66.931 43.5177 67.3384 43.8824 67.6231 44.3368C67.9079 44.7912 68.0584 45.3169 68.0572 45.8531L68.0184 59.5364C68.0184 59.8938 67.9479 60.2477 67.8108 60.5778C67.6738 60.9079 67.473 61.2077 67.2198 61.46C66.9667 61.7123 66.6663 61.9121 66.3357 62.0481C66.0052 62.184 65.6511 62.2534 65.2937 62.2522Z" fill="#013590" stroke="#013590" stroke-width="0.5"/>
<path d="M13.148 62.2491C13.0051 62.251 12.8663 62.2014 12.7569 62.1095C12.6474 62.0176 12.5747 61.8894 12.5518 61.7483C12.525 61.5873 11.9556 57.7238 14.5998 54.5936C16.7224 52.1014 20.2639 50.8374 25.0963 50.8374C32.6594 50.8374 39.8648 46.5178 44.5779 42.8957C44.64 42.848 44.7108 42.8129 44.7864 42.7925C44.862 42.7721 44.9409 42.7669 45.0185 42.777C45.0962 42.7871 45.1711 42.8124 45.239 42.8514C45.3068 42.8905 45.3664 42.9425 45.4141 43.0045C45.4619 43.0666 45.4969 43.1374 45.5173 43.2131C45.5377 43.2887 45.543 43.3675 45.5329 43.4452C45.5228 43.5228 45.4975 43.5977 45.4584 43.6656C45.4194 43.7335 45.3673 43.793 45.3053 43.8407C40.4461 47.5761 32.9933 52.0299 25.0963 52.0299C20.6247 52.0299 17.4051 53.1478 15.518 55.3538C13.2106 58.0517 13.7293 61.5188 13.7293 61.5515C13.7417 61.6291 13.7385 61.7083 13.7201 61.7846C13.7018 61.8609 13.6685 61.9329 13.6222 61.9963C13.576 62.0597 13.5176 62.1134 13.4506 62.1542C13.3835 62.195 13.3091 62.2222 13.2315 62.2342C13.2042 62.2416 13.1762 62.2466 13.148 62.2491Z" fill="#013590" stroke="#013590" stroke-width="0.5"/>
<path d="M61.7432 64.3954H48.5339C48.3757 64.3954 48.2241 64.3326 48.1123 64.2208C48.0004 64.109 47.9376 63.9573 47.9376 63.7992V59.5332C47.9376 59.3751 48.0004 59.2235 48.1123 59.1116C48.2241 58.9998 48.3757 58.937 48.5339 58.937H61.7402C61.8983 58.937 62.05 58.9998 62.1618 59.1116C62.2736 59.2235 62.3364 59.3751 62.3364 59.5332V63.7992C62.3364 63.9568 62.274 64.108 62.1628 64.2197C62.0517 64.3315 61.9008 64.3946 61.7432 64.3954ZM49.1331 63.203H61.1469V60.1295H49.1301L49.1331 63.203Z" fill="#013590" stroke="#013590" stroke-width="0.5"/>
<path d="M27.3083 63.8291H19.6826C19.5245 63.8291 19.3729 63.7663 19.261 63.6544C19.1492 63.5426 19.0864 63.391 19.0864 63.2329V60.2517C19.0864 60.0936 19.1492 59.942 19.261 59.8301C19.3729 59.7183 19.5245 59.6555 19.6826 59.6555H27.3083C27.4665 59.6555 27.6181 59.7183 27.7299 59.8301C27.8417 59.942 27.9045 60.0936 27.9045 60.2517V63.2329C27.9045 63.391 27.8417 63.5426 27.7299 63.6544C27.6181 63.7663 27.4665 63.8291 27.3083 63.8291ZM20.2789 62.6366H26.7121V60.848H20.2789V62.6366Z" fill="#013590" stroke="#013590" stroke-width="0.5"/>
<path d="M53.8044 60.1295C53.6485 60.1296 53.4986 60.0686 53.3871 59.9595L40.0138 46.9142C39.9534 46.8606 39.9046 46.7954 39.8701 46.7224C39.8357 46.6495 39.8164 46.5703 39.8135 46.4896C39.8106 46.409 39.8241 46.3286 39.8531 46.2533C39.8822 46.1781 39.9262 46.1095 39.9826 46.0517C40.0389 45.9939 40.1064 45.9482 40.1809 45.9173C40.2555 45.8864 40.3355 45.8709 40.4162 45.8719C40.4969 45.8728 40.5765 45.8901 40.6503 45.9227C40.7241 45.9553 40.7905 46.0025 40.8455 46.0616L54.2188 59.1039C54.3044 59.1865 54.3634 59.2927 54.3882 59.409C54.413 59.5253 54.4024 59.6463 54.3579 59.7566C54.3133 59.8668 54.2368 59.9613 54.1382 60.0277C54.0396 60.0941 53.9234 60.1296 53.8044 60.1295Z" fill="#013590" stroke="#013590" stroke-width="0.5"/>
<path d="M50.3732 60.1295C50.2182 60.1289 50.0696 60.0679 49.9588 59.9596L37.8019 48.1872C37.688 48.0773 37.6225 47.9267 37.6197 47.7684C37.6169 47.6102 37.677 47.4574 37.7869 47.3435C37.8968 47.2297 38.0475 47.1641 38.2057 47.1613C38.3639 47.1586 38.5167 47.2187 38.6306 47.3286L50.7876 59.104C50.844 59.1584 50.8892 59.2234 50.9204 59.2952C50.9517 59.3671 50.9686 59.4444 50.9699 59.5228C50.9713 59.6011 50.9572 59.679 50.9285 59.7519C50.8998 59.8248 50.857 59.8913 50.8025 59.9477C50.7468 60.0053 50.6801 60.0511 50.6064 60.0823C50.5326 60.1135 50.4533 60.1296 50.3732 60.1295Z" fill="#013590" stroke="#013590" stroke-width="0.5"/>
<path d="M48.5637 61.6409C48.4091 61.6411 48.2606 61.5812 48.1493 61.474L35.9804 49.6986C35.9199 49.6453 35.8709 49.5802 35.8363 49.5074C35.8017 49.4345 35.7822 49.3554 35.7791 49.2749C35.7759 49.1943 35.7891 49.1139 35.8179 49.0386C35.8467 48.9633 35.8905 48.8946 35.9466 48.8367C36.0027 48.7788 36.0699 48.7328 36.1443 48.7016C36.2187 48.6705 36.2986 48.6547 36.3792 48.6553C36.4599 48.6559 36.5395 48.6728 36.6134 48.7051C36.6873 48.7374 36.7539 48.7843 36.8091 48.843L48.9781 60.6154C49.0335 60.6708 49.0775 60.7366 49.1075 60.8089C49.1375 60.8813 49.1529 60.9589 49.1529 61.0373C49.1529 61.1156 49.1375 61.1932 49.1075 61.2656C49.0775 61.338 49.0335 61.4037 48.9781 61.4591C48.8692 61.5718 48.7203 61.6371 48.5637 61.6409Z" fill="#013590" stroke="#013590" stroke-width="0.5"/>
<path d="M45.824 62.2521C45.6691 62.2515 45.5204 62.1905 45.4096 62.0822L33.1871 50.2412C33.1309 50.1866 33.086 50.1214 33.055 50.0495C33.024 49.9775 33.0075 49.9002 33.0064 49.8218C33.0053 49.7435 33.0196 49.6657 33.0486 49.5929C33.0775 49.5201 33.1205 49.4537 33.1751 49.3975C33.2298 49.3414 33.2949 49.2965 33.3669 49.2655C33.4388 49.2345 33.5162 49.218 33.5945 49.2169C33.6728 49.2157 33.7506 49.2301 33.8234 49.259C33.8962 49.288 33.9626 49.331 34.0188 49.3856L46.2414 61.2266C46.3272 61.3093 46.3862 61.4158 46.4109 61.5324C46.4356 61.649 46.4248 61.7703 46.3799 61.8806C46.3349 61.991 46.258 62.0854 46.1589 62.1516C46.0598 62.2178 45.9432 62.2528 45.824 62.2521Z" fill="#013590" stroke="#013590" stroke-width="0.5"/>
<path d="M27.8986 54.5937C26.2678 54.5912 24.659 54.217 23.1944 53.4997L20.8095 52.337C20.739 52.3026 20.6761 52.2546 20.6241 52.1958C20.5722 52.137 20.5324 52.0685 20.5069 51.9944C20.4814 51.9202 20.4708 51.8417 20.4757 51.7634C20.4806 51.6851 20.5008 51.6085 20.5352 51.5381C20.5697 51.4676 20.6177 51.4046 20.6765 51.3527C20.7353 51.3008 20.8037 51.261 20.8779 51.2355C20.9521 51.21 21.0306 51.1994 21.1089 51.2043C21.1872 51.2091 21.2637 51.2294 21.3342 51.2638L23.7191 52.4265C25.2898 53.1996 27.0439 53.5226 28.787 53.3595C33.1692 52.9481 41.1973 51.5709 46.3755 47.0068L44.5362 43.5785C44.4846 43.4879 44.4598 43.3845 44.4646 43.2804L44.5988 40.2277C44.6154 39.8413 44.7126 39.4627 44.8843 39.1161C45.056 38.7695 45.2983 38.4627 45.5956 38.2153C45.8929 37.968 46.2387 37.7856 46.6107 37.6798C46.9828 37.5741 47.3728 37.5474 47.7558 37.6014C48.1687 37.6594 48.5632 37.8095 48.9102 38.0407C49.2572 38.272 49.5477 38.5783 49.7601 38.9371C49.9726 39.2958 50.1015 39.6978 50.1375 40.1132C50.1734 40.5286 50.1154 40.9468 49.9678 41.3367L47.6813 47.3496L47.6544 47.4152C47.62 47.4801 47.5746 47.5386 47.5203 47.5881C42.0917 52.6381 33.5091 54.1227 28.8883 54.558C28.5564 54.5818 28.2265 54.5937 27.8986 54.5937ZM45.6571 43.1612L47.0224 45.7011L48.8469 40.9194C48.931 40.6967 48.964 40.458 48.9434 40.2209C48.9227 39.9838 48.8489 39.7543 48.7275 39.5496C48.6061 39.3449 48.4402 39.1701 48.242 39.0382C48.0439 38.9064 47.8186 38.8208 47.5829 38.7879C47.3661 38.7596 47.1458 38.7765 46.9358 38.8375C46.7258 38.8985 46.5307 39.0022 46.3627 39.1422C46.1948 39.2821 46.0576 39.4553 45.9597 39.6509C45.8619 39.8464 45.8055 40.0601 45.7942 40.2784L45.6571 43.1612Z" fill="#013590" stroke="#013590" stroke-width="0.5"/>
<path d="M32.8413 50.6885C32.7784 50.6888 32.716 50.6788 32.6564 50.6587C32.582 50.6341 32.5132 50.5951 32.4539 50.5438C32.3945 50.4926 32.3459 50.4301 32.3107 50.3601C32.2756 50.29 32.2546 50.2137 32.2489 50.1356C32.2433 50.0574 32.2531 49.9789 32.2778 49.9045C32.3787 49.5982 32.5447 49.3175 32.7646 49.0816C32.9844 48.8458 33.2527 48.6604 33.5511 48.5382C33.8495 48.4161 34.1709 48.3601 34.493 48.3742C34.8151 48.3882 35.1303 48.472 35.4169 48.6196L35.4944 48.6584C35.6356 48.7299 35.7425 48.8546 35.7917 49.005C35.8409 49.1554 35.8283 49.3192 35.7568 49.4603C35.6852 49.6014 35.5605 49.7083 35.4102 49.7575C35.2598 49.8067 35.096 49.7942 34.9549 49.7226L34.8744 49.6809C34.7413 49.6137 34.5953 49.5759 34.4463 49.57C34.2973 49.5642 34.1488 49.5904 34.0109 49.6469C33.8729 49.7035 33.7487 49.789 33.6467 49.8977C33.5447 50.0065 33.4672 50.1358 33.4196 50.2771C33.38 50.3986 33.3024 50.5042 33.1983 50.5782C33.0942 50.6523 32.969 50.691 32.8413 50.6885Z" fill="#013590" stroke="#013590" stroke-width="0.5"/>
<path d="M35.8045 49.4482C35.71 49.4483 35.6169 49.4259 35.5328 49.383C35.4487 49.34 35.3759 49.2777 35.3206 49.2011C35.2653 49.1246 35.229 49.036 35.2146 48.9426C35.2003 48.8493 35.2083 48.7538 35.2381 48.6642C35.3392 48.3592 35.5051 48.0796 35.7242 47.8446C35.9433 47.6096 36.2106 47.4246 36.5078 47.3023C36.8049 47.1801 37.125 47.1234 37.4461 47.1362C37.7672 47.1489 38.0817 47.2309 38.3682 47.3763L38.4457 47.4181C38.52 47.4507 38.5868 47.4982 38.6421 47.5575C38.6974 47.6169 38.7399 47.6869 38.7672 47.7633C38.7945 47.8397 38.8059 47.9208 38.8008 48.0018C38.7956 48.0827 38.774 48.1618 38.7372 48.2341C38.7005 48.3064 38.6493 48.3704 38.587 48.4223C38.5246 48.4742 38.4523 48.5127 38.3745 48.5357C38.2967 48.5587 38.2151 48.5655 38.1345 48.5558C38.054 48.5461 37.9763 48.5201 37.9062 48.4794L37.8257 48.4406C37.6928 48.3724 37.5466 48.3337 37.3974 48.3274C37.2481 48.321 37.0992 48.347 36.961 48.4037C36.8227 48.4604 36.6984 48.5463 36.5965 48.6556C36.4947 48.7649 36.4177 48.8949 36.3709 49.0368C36.3319 49.1564 36.2561 49.2605 36.1544 49.3344C36.0527 49.4083 35.9302 49.4481 35.8045 49.4482Z" fill="#013590" stroke="#013590" stroke-width="0.5"/>
<path d="M38.398 48.0293C38.3343 48.0294 38.2708 48.0194 38.2102 47.9995C38.1358 47.9748 38.067 47.9358 38.0077 47.8846C37.9483 47.8333 37.8997 47.7709 37.8645 47.7008C37.8294 47.6308 37.8084 47.5545 37.8027 47.4763C37.7971 47.3981 37.8069 47.3196 37.8316 47.2452C37.9324 46.9403 38.0978 46.6607 38.3168 46.4258C38.5357 46.1908 38.8028 46.0059 39.0998 45.8839C39.3969 45.7618 39.7168 45.7055 40.0377 45.7187C40.3586 45.7319 40.6728 45.8143 40.9588 45.9604L41.0393 45.9991C41.1092 46.0346 41.1714 46.0834 41.2224 46.1429C41.2734 46.2023 41.3122 46.2713 41.3366 46.3458C41.3609 46.4202 41.3704 46.4988 41.3644 46.5769C41.3584 46.655 41.3371 46.7312 41.3017 46.801C41.2662 46.8709 41.2174 46.9331 41.1579 46.9841C41.0984 47.0351 41.0295 47.0739 40.955 47.0983C40.8046 47.1475 40.6409 47.1349 40.4997 47.0634L40.4192 47.0216C40.2863 46.9534 40.1402 46.9148 39.9909 46.9084C39.8417 46.902 39.6928 46.9281 39.5546 46.9847C39.4163 47.0414 39.292 47.1273 39.1901 47.2366C39.0882 47.3459 39.0113 47.476 38.9645 47.6179C38.9255 47.7374 38.8497 47.8416 38.748 47.9154C38.6463 47.9893 38.5238 48.0292 38.398 48.0293Z" fill="#013590" stroke="#013590" stroke-width="0.5"/>
<path d="M21.7038 38.117H1.59622C1.43809 38.117 1.28644 38.0542 1.17463 37.9424C1.06282 37.8306 1 37.6789 1 37.5208C1 37.3627 1.06282 37.211 1.17463 37.0992C1.28644 36.9874 1.43809 36.9246 1.59622 36.9246H21.7038C21.862 36.9246 22.0136 36.9874 22.1254 37.0992C22.2372 37.211 22.3001 37.3627 22.3001 37.5208C22.3001 37.6789 22.2372 37.8306 22.1254 37.9424C22.0136 38.0542 21.862 38.117 21.7038 38.117Z" fill="#013590" stroke="#013590" stroke-width="0.5"/>
<path d="M35.6405 36.2659C35.4824 36.2659 35.3308 36.2031 35.2189 36.0913C35.1071 35.9795 35.0443 35.8278 35.0443 35.6697V23.9956C35.0443 23.8375 35.1071 23.6859 35.2189 23.574C35.3308 23.4622 35.4824 23.3994 35.6405 23.3994C35.7987 23.3994 35.9503 23.4622 36.0621 23.574C36.1739 23.6859 36.2368 23.8375 36.2368 23.9956V35.6697C36.2368 35.8278 36.1739 35.9795 36.0621 36.0913C35.9503 36.2031 35.7987 36.2659 35.6405 36.2659Z" fill="#013590" stroke="#013590" stroke-width="0.5"/>
<path d="M39.5547 40.9878C39.3966 40.9878 39.2449 40.9249 39.1331 40.8131C39.0213 40.7013 38.9585 40.5497 38.9585 40.3915V29.8324C38.9585 29.6743 39.0213 29.5227 39.1331 29.4108C39.2449 29.299 39.3966 29.2362 39.5547 29.2362C39.7128 29.2362 39.8645 29.299 39.9763 29.4108C40.0881 29.5227 40.1509 29.6743 40.1509 29.8324V40.3915C40.1509 40.5497 40.0881 40.7013 39.9763 40.8131C39.8645 40.9249 39.7128 40.9878 39.5547 40.9878Z" fill="#013590" stroke="#013590" stroke-width="0.5"/>
<path d="M57.7544 33.2847C57.5963 33.2847 57.4446 33.2219 57.3328 33.1101C57.221 32.9983 57.1582 32.8466 57.1582 32.6885V21.0144C57.1582 20.8563 57.221 20.7047 57.3328 20.5928C57.4446 20.481 57.5963 20.4182 57.7544 20.4182C57.9126 20.4182 58.0642 20.481 58.176 20.5928C58.2878 20.7047 58.3506 20.8563 58.3506 21.0144V32.6885C58.3506 32.8466 58.2878 32.9983 58.176 33.1101C58.0642 33.2219 57.9126 33.2847 57.7544 33.2847Z" fill="#013590" stroke="#013590" stroke-width="0.5"/>
<path d="M53.8402 38.0068C53.6821 38.0068 53.5305 37.944 53.4186 37.8322C53.3068 37.7204 53.244 37.5687 53.244 37.4106V26.8515C53.244 26.6933 53.3068 26.5417 53.4186 26.4299C53.5305 26.3181 53.6821 26.2552 53.8402 26.2552C53.9984 26.2552 54.15 26.3181 54.2618 26.4299C54.3736 26.5417 54.4365 26.6933 54.4365 26.8515V37.4106C54.4365 37.5687 54.3736 37.7204 54.2618 37.8322C54.15 37.944 53.9984 38.0068 53.8402 38.0068Z" fill="#013590" stroke="#013590" stroke-width="0.5"/>
</svg>
